<?xml version="1.0" encoding="UTF-8"?>
<svg id="Calque_2" data-name="Calque 2" xmlns="http://www.w3.org/2000/svg" viewBox="0 0 319.6 319.6">
  <defs>
    <style>
      .cls-1 {
        fill: #f88;
      }

      .cls-2 {
        fill: #f7c1c1;
      }

      .cls-3 {
        fill: none;
        stroke: #f88;
        stroke-miterlimit: 10;
        stroke-width: 5px;
      }
    </style>
  </defs>
  <circle class="cls-3" cx="159.8" cy="159.8" r="148.82"/>
  <path class="cls-2" d="M235.39,252.57s-36.1,2.6-32.8-30.6c0,0,17.6-30.9,43,10.4,0,0-19-41.4,14.9-44.6,0,0,29.8,3.3,12.3,41.8,0,0,28-36.7,42.2-9.3,0,0,14.5,27.1-27,32.4,0,0,45.1,8.8,26.1,32,0,0-11.4,27.5-42.7-10.4,0,0,24.7,38.4-14.2,42.2,0,0-24.7-6.6-11.6-37,0,0-24.9,29.4-41.1,5.2,0,0-16.1-28.9,30.9-32h0v-.1Z"/>
  <circle class="cls-1" cx="262.59" cy="252.57" r="17"/>
</svg>