<?xml version="1.0" encoding="UTF-8"?>
<svg id="Calque_2" data-name="Calque 2" xmlns="http://www.w3.org/2000/svg" viewBox="0 0 319.6 319.6">
  <defs>
    <style>
      .cls-1 {
        fill: none;
        stroke: #e98225;
        stroke-miterlimit: 10;
        stroke-width: 5px;
      }

      .cls-2 {
        fill: #e98225;
      }

      .cls-3 {
        fill: #0a0207;
      }
    </style>
  </defs>
  <g id="Calque_1-23" data-name="Calque 1-23">
    <circle class="cls-1" cx="159" cy="159.8" r="148.82"/>
  </g>
  <g id="Calque_2-23" data-name="Calque 2-23">
    <polygon class="cls-3" points="314.4 293.7 219.7 315.4 206.7 218 302.5 205.1 314.4 293.7"/>
    <path class="cls-3" d="M255,211.3l-47.3,9.3c-.4-1.3-.6-2.6-.8-3.9-2.1-18.6,17.9-36.3,44.3-39.3s49.8,9.9,51.9,28.5c.1,1.2.2,2.4.1,3.6l-48.2,1.9h0v-.1Z"/>
    <polygon class="cls-2" points="286.7 255.9 288.6 265.7 272.2 268.9 276.4 290.5 266.2 292.5 261.9 271 245.5 274.2 243.5 264.4 260 261.1 257.7 249.3 267.9 247.3 270.3 259.1 286.7 255.9"/>
  </g>
</svg>