<?xml version="1.0" encoding="UTF-8"?>
<svg id="Calque_2" data-name="Calque 2" xmlns="http://www.w3.org/2000/svg" viewBox="0 0 319.6 319.6">
  <defs>
    <style>
      .cls-1, .cls-2 {
        stroke: #fc0;
      }

      .cls-1, .cls-2, .cls-3, .cls-4 {
        stroke-miterlimit: 10;
      }

      .cls-1, .cls-2, .cls-4 {
        fill: none;
      }

      .cls-2 {
        stroke-width: 5px;
      }

      .cls-3 {
        fill: #fc0;
      }

      .cls-3, .cls-4 {
        stroke: #1d1d1b;
      }
    </style>
  </defs>
  <g id="Calque_1-25" data-name="Calque 1-25">
    <circle class="cls-2" cx="161.95" cy="159.8" r="148.82"/>
  </g>
  <g id="Calque_2-25" data-name="Calque 2-25">
    <circle class="cls-3" cx="239.8" cy="82.4" r="40.2"/>
    <line class="cls-4" x1="281.8" y1="60.7" x2="316.6" y2="53.6"/>
    <line class="cls-1" x1="159.4" y1="80.7" x2="191.5" y2="82.4"/>
    <line class="cls-1" x1="167.9" y1="40.8" x2="193.6" y2="54.5"/>
    <line class="cls-1" x1="199.2" y1="16.6" x2="213.7" y2="35.8"/>
    <line class="cls-1" x1="239.3" y1="7.5" x2="240.3" y2="34"/>
    <line class="cls-1" x1="268.3" y1="43" x2="287" y2="18.4"/>
    <line class="cls-1" x1="315.6" y1="51.3" x2="281.8" y2="60.7"/>
    <line class="cls-1" x1="314.7" y1="85.5" x2="288" y2="85.3"/>
    <line class="cls-1" x1="302.9" y1="126.3" x2="280" y2="112.2"/>
    <line class="cls-1" x1="269.3" y1="151.8" x2="260.3" y2="126.3"/>
    <line class="cls-1" x1="229.3" y1="157.6" x2="235.8" y2="132.1"/>
    <line class="cls-1" x1="190" y1="147.7" x2="209.2" y2="122.6"/>
    <line class="cls-1" x1="165.6" y1="115.8" x2="195.8" y2="105.5"/>
    <line class="cls-4" x1="290.9" y1="84.6" x2="311.9" y2="84"/>
    <line class="cls-4" x1="241.9" y1="8" x2="240.7" y2="33.7"/>
    <line class="cls-4" x1="201.5" y1="17" x2="213.7" y2="35.4"/>
    <line class="cls-4" x1="170.5" y1="40.8" x2="191.5" y2="52.5"/>
    <line class="cls-4" x1="160.2" y1="78.9" x2="189.8" y2="82.4"/>
    <line class="cls-4" x1="167" y1="114.8" x2="193.6" y2="104.3"/>
    <line class="cls-4" x1="189.8" y1="144.9" x2="208.6" y2="122.6"/>
    <line class="cls-4" x1="267" y1="42.2" x2="284.3" y2="19.2"/>
    <line class="cls-4" x1="281.8" y1="111.2" x2="302.9" y2="125.1"/>
    <line class="cls-4" x1="261.8" y1="126.3" x2="269.3" y2="146.2"/>
    <line class="cls-4" x1="235.8" y1="132.1" x2="231.3" y2="154.6"/>
  </g>
</svg>