<?xml version="1.0" encoding="UTF-8"?>
<svg id="Calque_2" data-name="Calque 2" xmlns="http://www.w3.org/2000/svg" viewBox="0 0 319.6 319.6">
  <defs>
    <style>
      .cls-1 {
        fill: #181902;
      }

      .cls-2 {
        fill: none;
        stroke: #ff7ea3;
        stroke-miterlimit: 10;
        stroke-width: 5px;
      }
    </style>
  </defs>
  <g id="Calque_1-26" data-name="Calque 1-26">
    <circle class="cls-2" cx="159.8" cy="160.6" r="148.82"/>
  </g>
  <g id="Calque_2-26" data-name="Calque 2-26">
    <path class="cls-1" d="M229,286.7h75.3c.1,0,.2.1.2.2v18.5c0,1.5-1.2,2.7-2.7,2.7h-70.1c-1.6,0-2.8-1.3-2.8-2.8v-18.4c0-.1.1-.2.2-.2h-.1Z"/>
    <rect class="cls-1" x="228.8" y="192.4" width="73.1" height="89.7"/>
    <path class="cls-1" d="M231.2,179.7h68.3c2,0,3.7,1.7,3.7,3.7v17.4c0,.1-.1.3-.3.3h-75.2c-.1,0-.3-.1-.3-.3v-17.4c0-2.1,1.7-3.7,3.7-3.7h.1Z"/>
    <rect class="cls-2" x="228.5" y="179.7" width="75.9" height="128.4" rx="2.8" ry="2.8"/>
    <line class="cls-2" x1="228.8" y1="284.7" x2="304.5" y2="284.7"/>
    <circle class="cls-2" cx="266.6" cy="296.4" r="4"/>
  </g>
</svg>