<?xml version="1.0" encoding="UTF-8"?>
<svg id="Calque_2" data-name="Calque 2" xmlns="http://www.w3.org/2000/svg" xmlns:xlink="http://www.w3.org/1999/xlink" viewBox="0 0 319.6 319.6">
  <defs>
    <style>
      .cls-1 {
        fill: none;
        stroke: #b3ce76;
        stroke-miterlimit: 10;
        stroke-width: 5px;
      }

      .cls-2 {
        fill: url(#Dégradé_sans_nom);
      }
    </style>
    <linearGradient id="Dégradé_sans_nom" data-name="Dégradé sans nom" x1="210.9" y1="307.87" x2="316.9" y2="307.87" gradientTransform="translate(0 -47.7)" gradientUnits="userSpaceOnUse">
      <stop offset="0" stop-color="#b3ce76"/>
      <stop offset="1" stop-color="#007f1d"/>
    </linearGradient>
  </defs>
  <circle class="cls-1" cx="159.8" cy="159.8" r="148.82"/>
  <path class="cls-2" d="M257.5,251.7s-30.9-32.1-13.2-41.6c0,0,17-10.1,18,13.9,0,0,8.5-24.6,21.7-12,0,0,15.1,10.1-11.4,39.7,0,0,27.9-25.1,37.6-13.1,0,0,17.2,14.9-6.6,22,0,0,20.8,8,10.4,20.8,0,0-3.1,17.5-41.3-13,0,0,31.6,30.9,9.5,42.3,0,0-11.3,8.5-17.2-13,0,0-5.4,20.3-19.6,12,0,0-20.8-11.1,11.6-41.8,0,0-30.5,27.9-44.6,9.2,0,0-3.9-17.9,13.8-18.2,0,0-26.5-6.6-9.3-24.3,0,0,9.3-8.6,40.8,17.1h-.2Z"/>
</svg>